<?xml version="1.0" encoding="UTF-8" standalone="no"?>
<!-- Created with Inkscape (http://www.inkscape.org/) -->

<svg
   xmlns:dc="http://purl.org/dc/elements/1.1/"
   xmlns:cc="http://creativecommons.org/ns#"
   xmlns:rdf="http://www.w3.org/1999/02/22-rdf-syntax-ns#"
   xmlns:svg="http://www.w3.org/2000/svg"
   xmlns="http://www.w3.org/2000/svg"
   xmlns:sodipodi="http://sodipodi.sourceforge.net/DTD/sodipodi-0.dtd"
   xmlns:inkscape="http://www.inkscape.org/namespaces/inkscape"
   width="280"
   height="70"
   viewBox="0 0 280.00001 69.999999"
   id="svg5396"
   version="1.1"
   inkscape:version="0.91 r13725"
   sodipodi:docname="slogan_1.svg">
  <defs
     id="defs5398" />
  <sodipodi:namedview
     id="base"
     pagecolor="#ffffff"
     bordercolor="#666666"
     borderopacity="1.0"
     inkscape:pageopacity="0.0"
     inkscape:pageshadow="2"
     inkscape:zoom="3.6850159"
     inkscape:cx="130.26236"
     inkscape:cy="-4.1309218"
     inkscape:document-units="px"
     inkscape:current-layer="layer1"
     showgrid="true"
     units="px"
     inkscape:window-width="1920"
     inkscape:window-height="1027"
     inkscape:window-x="-8"
     inkscape:window-y="-8"
     inkscape:window-maximized="1">
    <inkscape:grid
       type="xygrid"
       id="grid5944" />
  </sodipodi:namedview>
  <metadata
     id="metadata5401">
    <rdf:RDF>
      <cc:Work
         rdf:about="">
        <dc:format>image/svg+xml</dc:format>
        <dc:type
           rdf:resource="http://purl.org/dc/dcmitype/StillImage" />
        <dc:title></dc:title>
      </cc:Work>
    </rdf:RDF>
  </metadata>
  <g
     inkscape:label="Layer 1"
     inkscape:groupmode="layer"
     id="layer1"
     transform="translate(0,-982.3622)">
    <g
       style="font-style:normal;font-variant:normal;font-weight:normal;font-stretch:normal;font-size:62.5px;line-height:125%;font-family:Montserrat;-inkscape-font-specification:Montserrat;letter-spacing:0px;word-spacing:0px;fill:none;fill-opacity:1;stroke:#000000;stroke-width:1.00000012;stroke-linecap:butt;stroke-linejoin:miter;stroke-miterlimit:4;stroke-dasharray:none;stroke-opacity:1"
       id="text5946"
       transform="translate(42,0)">
      <path
         id="path5979"
         d="m 218.34277,1029.6742 c -2.25,0 -3.9375,1.6875 -3.9375,4.0625 0,2.4375 1.6875,4.1875 3.9375,4.1875 2.25,0 3.9375,-1.75 3.9375,-4.1875 0,-2.375 -1.6875,-4.0625 -3.9375,-4.0625 z m -24.55566,-25.8125 c -9.875,0.062 -16.8125,6.875 -16.8125,16.9375 0,10 6.75,16.8125 17,16.8125 5.75,0 10.5,-2.0625 13.75,-5.625 l -3.8125,-4.0625 c -2.4375,2.5 -5.75,3.875 -9.375,3.875 -5.25,0 -9.1875,-3.1875 -10.3125,-8.3125 l 25.125,0 c 0.875,-12 -3.875,-19.625 -15.5625,-19.625 z m -9.6875,14.375 c 0.75,-5.3125 4.5,-8.625 9.75,-8.625 5.4375,0 9,3.25 9.25,8.625 l -19,0 z m -22.12012,-27.25001 0,46.37501 7.1875,0 0,-46.37501 -7.1875,0 z m -14.45019,-0.75 c -2.375,0 -4.1875,1.8125 -4.1875,4.375 0,2.5 1.8125,4.3125 4.1875,4.3125 2.375,0 4.1875,-1.8125 4.1875,-4.3125 0,-2.5625 -1.8125,-4.375 -4.1875,-4.375 z m -3.5625,13.87501 0,33.25 7.125,0 0,-33.25 -7.125,0 z m -23.35547,-0.25 c -5.1875,0 -9.1875,2.125 -11.625,6 l 0,-18.87501 -7.1875,0 0,46.37501 7.1875,0 0,-5.75 c 2.4375,3.875 6.4375,6 11.75,6 9.5,0 15.75,-6.8125 15.75,-16.75 0,-10.125 -6.4375,-17 -15.875,-17 z m -1.5,27.625 c -5.9375,0 -10.125,-4.4375 -10.125,-10.875 0,-6.25 4.1875,-10.75 10.125,-10.75 5.9375,0 10.125,4.5625 10.125,10.75 0,6.375 -4.1875,10.875 -10.125,10.875 z m -42.437502,-27.625 c -10.3125,0 -17.375,6.8125 -17.375,16.875 0,10 7.0625,16.875 17.375,16.875 10.25,0 17.3125,-6.875 17.3125,-16.875 0,-10.0625 -7.0625,-16.875 -17.3125,-16.875 z m 0,6.1875 c 5.9375,0 10.125,4.375 10.125,10.75 0,6.4375 -4.1875,10.8125 -10.125,10.8125 -6,0 -10.1875,-4.375 -10.1875,-10.8125 0,-6.375 4.1875,-10.75 10.1875,-10.75 z m -71.6738277,-16.43751 0,43.75001 6.9374997,0 0,-32.6875 13.8125,28.125 4.8125,0 13.8125,-28.125 0.0625,32.6875 6.8125,0 0,-43.75001 -8.6875,0 -14.375,29.06251 -14.4375,-29.06251 -8.7499997,0 z"
         inkscape:connector-curvature="0" />
    </g>
  </g>
</svg>
