<?xml version="1.0" encoding="UTF-8" standalone="no"?>
<svg
   xmlns:dc="http://purl.org/dc/elements/1.1/"
   xmlns:cc="http://creativecommons.org/ns#"
   xmlns:rdf="http://www.w3.org/1999/02/22-rdf-syntax-ns#"
   xmlns:svg="http://www.w3.org/2000/svg"
   xmlns="http://www.w3.org/2000/svg"
   version="1.1"
   id="svg6554"
   viewBox="0 0 280 70.000001"
   height="70"
   width="280">
  <defs
     id="defs6556" />
  <metadata
     id="metadata6559">
    <rdf:RDF>
      <cc:Work
         rdf:about="">
        <dc:format>image/svg+xml</dc:format>
        <dc:type
           rdf:resource="http://purl.org/dc/dcmitype/StillImage" />
        <dc:title></dc:title>
      </cc:Work>
    </rdf:RDF>
  </metadata>
  <g
     transform="translate(0,-982.36214)"
     id="layer1">
    <g
       id="text7104"
       style="font-style:normal;font-variant:normal;font-weight:normal;font-stretch:normal;font-size:62.5px;line-height:125%;font-family:Montserrat;-inkscape-font-specification:Montserrat;letter-spacing:0px;word-spacing:0px;fill:none;fill-opacity:1;stroke:#000000;stroke-width:1px;stroke-linecap:butt;stroke-linejoin:miter;stroke-opacity:1">
      <path
         d="m 269.48535,1029.7747 c -2.25,0 -3.9375,1.6875 -3.9375,4.0625 0,2.4375 1.6875,4.1875 3.9375,4.1875 2.25,0 3.9375,-1.75 3.9375,-4.1875 0,-2.375 -1.6875,-4.0625 -3.9375,-4.0625 z m -24.85547,-25.8125 c -5.1875,0 -9.1875,2.125 -11.625,6 l 0,-5.75 -7.1875,0 0,45.375 7.1875,0 0,-17.875 c 2.4375,3.875 6.4375,6 11.75,6 9.5,0 15.75,-6.8125 15.75,-16.75 0,-10.125 -6.4375,-17 -15.875,-17 z m -1.5,27.625 c -5.9375,0 -10.125,-4.4375 -10.125,-10.875 0,-6.25 4.1875,-10.75 10.125,-10.75 5.9375,0 10.125,4.5625 10.125,10.75 0,6.375 -4.1875,10.875 -10.125,10.875 z m -42.4375,-27.625 c -10.3125,0 -17.375,6.8125 -17.375,16.875 0,10 7.0625,16.875 17.375,16.875 10.25,0 17.3125,-6.875 17.3125,-16.875 0,-10.0625 -7.0625,-16.875 -17.3125,-16.875 z m 0,6.1875 c 5.9375,0 10.125,4.375 10.125,10.75 0,6.4375 -4.1875,10.8125 -10.125,10.8125 -6,0 -10.1875,-4.375 -10.1875,-10.8125 0,-6.375 4.1875,-10.75 10.1875,-10.75 z m -22.27441,19.6875 c -1.9375,0.9375 -3.5,1.4375 -5,1.4375 -2.25,0 -3.5625,-1.0625 -3.5625,-4.5 l 0,-15.9375 9.8125,0 0,-5.375 -9.8125,0 0,-9.12504 -7.125,0 0,9.12504 -4.6875,0 0,5.375 4.6875,0 0,17.25 c 0,6.8125 4.3125,9.6875 9.3125,9.6875 2.8125,0 5.5625,-0.875 8.1875,-2.4375 l -1.8125,-5.5 z m -31.35645,7.625 8.5,0 -13.25,-20.375 12.3125,-12.875 -8.25,0 -14.6875,14.875 0,-28.00004 -7.1875,0 0,46.37504 7.1875,0 0,-9.3125 5.625,-5.9375 9.75,15.25 z m -33.35644,-24.875 2.625,-5.3125 c -3,-2.125 -7.4375,-3.375 -11.625,-3.375 -6.375002,0 -12.250002,2.875 -12.250002,9.625 -0.0625,12 17.437502,8.1875 17.437502,15 0,2.5 -2.375,3.5625 -5.4375,3.5625 -3.625,0 -8.250002,-1.5625 -11.125002,-4.125 l -2.5625,5.125 c 3.3125,3 8.5,4.625 13.375002,4.625 6.6875,0 12.75,-3.0625 12.75,-9.875 0.0625,-12.0625 -17.625002,-8.75 -17.625002,-14.875 0,-2.375 2.062502,-3.3125 4.875002,-3.3125 2.9375,0 6.625,1.125 9.5625,2.9375 z m -41.993166,-8.625 c -9.875,0.062 -16.8125,6.875 -16.8125,16.9375 0,10 6.75,16.8125 17,16.8125 5.75,0 10.5,-2.0625 13.75,-5.625 l -3.8125,-4.0625 c -2.4375,2.5 -5.75,3.875 -9.375,3.875 -5.25,0 -9.1875,-3.1875 -10.3125,-8.3125 l 25.125,0 c 0.875,-12 -3.875,-19.625 -15.5625,-19.625 z m -9.6875,14.375 c 0.75,-5.3125 4.5,-8.625 9.75,-8.625 5.4375,0 9,3.25 9.25,8.625 l -19,0 z M 27.9375,993.71216 l -17.9375,0 0,43.75004 17.75,0 c 13.25,0 22.8125,-9.25 22.8125,-21.875 0,-12.6875 -9.5,-21.87504 -22.625,-21.87504 z m 0.1875,37.12504 -10.75,0 0,-30.5 10.4375,0 c 8.625,0 15.3125,6.375 15.3125,15.3125 0,8.875 -6.5,15.1875 -15,15.1875 z"
         style=""
         id="path7123" />
    </g>
  </g>
</svg>
