<?xml version="1.0" encoding="UTF-8" standalone="no"?>
<!-- Created with Inkscape (http://www.inkscape.org/) -->

<svg
   xmlns:dc="http://purl.org/dc/elements/1.1/"
   xmlns:cc="http://creativecommons.org/ns#"
   xmlns:rdf="http://www.w3.org/1999/02/22-rdf-syntax-ns#"
   xmlns:svg="http://www.w3.org/2000/svg"
   xmlns="http://www.w3.org/2000/svg"
   xmlns:sodipodi="http://sodipodi.sourceforge.net/DTD/sodipodi-0.dtd"
   xmlns:inkscape="http://www.inkscape.org/namespaces/inkscape"
   width="280"
   height="70"
   viewBox="0 0 280 70.000001"
   id="svg5982"
   version="1.1"
   inkscape:version="0.91 r13725"
   sodipodi:docname="slogan_2.svg">
  <defs
     id="defs5984" />
  <sodipodi:namedview
     id="base"
     pagecolor="#ffffff"
     bordercolor="#666666"
     borderopacity="1.0"
     inkscape:pageopacity="0.0"
     inkscape:pageshadow="2"
     inkscape:zoom="3.959798"
     inkscape:cx="143.10502"
     inkscape:cy="8.3665098"
     inkscape:document-units="px"
     inkscape:current-layer="layer1"
     showgrid="true"
     units="px"
     inkscape:window-width="1920"
     inkscape:window-height="1027"
     inkscape:window-x="-8"
     inkscape:window-y="-8"
     inkscape:window-maximized="1">
    <inkscape:grid
       type="xygrid"
       id="grid6530" />
  </sodipodi:namedview>
  <metadata
     id="metadata5987">
    <rdf:RDF>
      <cc:Work
         rdf:about="">
        <dc:format>image/svg+xml</dc:format>
        <dc:type
           rdf:resource="http://purl.org/dc/dcmitype/StillImage" />
        <dc:title></dc:title>
      </cc:Work>
    </rdf:RDF>
  </metadata>
  <g
     inkscape:label="Layer 1"
     inkscape:groupmode="layer"
     id="layer1"
     transform="translate(0,-982.36218)">
    <g
       style="font-style:normal;font-variant:normal;font-weight:normal;font-stretch:normal;font-size:62.5px;line-height:125%;font-family:Montserrat;-inkscape-font-specification:Montserrat;letter-spacing:0px;word-spacing:0px;fill:none;fill-opacity:1;stroke:#000000;stroke-width:1px;stroke-linecap:butt;stroke-linejoin:miter;stroke-opacity:1"
       id="text6532">
      <path
         id="path6551"
         d="m 266.01465,1029.6752 c -2.25,0 -3.9375,1.6875 -3.9375,4.0625 0,2.4375 1.6875,4.1875 3.9375,4.1875 2.25,0 3.9375,-1.75 3.9375,-4.1875 0,-2.375 -1.6875,-4.0625 -3.9375,-4.0625 z m -24.55567,-25.8125 c -9.875,0.062 -16.8125,6.875 -16.8125,16.9375 0,10 6.75,16.8125 17,16.8125 5.75,0 10.5,-2.0625 13.75,-5.625 l -3.8125,-4.0625 c -2.4375,2.5 -5.75,3.875 -9.375,3.875 -5.25,0 -9.1875,-3.1875 -10.3125,-8.3125 l 25.125,0 c 0.875,-12 -3.875,-19.625 -15.5625,-19.625 z m -9.6875,14.375 c 0.75,-5.3125 4.5,-8.625 9.75,-8.625 5.4375,0 9,3.25 9.25,8.625 l -19,0 z m -12.02441,11.5 c -1.9375,0.9375 -3.5,1.4375 -5,1.4375 -2.25,0 -3.5625,-1.0625 -3.5625,-4.5 l 0,-15.9375 9.8125,0 0,-5.375 -9.8125,0 0,-9.12503 -7.125,0 0,9.12503 -4.6875,0 0,5.375 4.6875,0 0,17.25 c 0,6.8125 4.3125,9.6875 9.3125,9.6875 2.8125,0 5.5625,-0.875 8.1875,-2.4375 l -1.8125,-5.5 z m -31.1377,-39.50003 c -2.375,0 -4.1875,1.8125 -4.1875,4.375 0,2.5 1.8125,4.3125 4.1875,4.3125 2.375,0 4.1875,-1.8125 4.1875,-4.3125 0,-2.5625 -1.8125,-4.375 -4.1875,-4.375 z m -3.5625,13.87503 0,33.25 7.125,0 0,-33.25 -7.125,0 z m -10.48144,8.375 2.625,-5.3125 c -3,-2.125 -7.4375,-3.375 -11.625,-3.375 -6.375,0 -12.25,2.875 -12.25,9.625 -0.0625,12 17.4375,8.1875 17.4375,15 0,2.5 -2.375,3.5625 -5.4375,3.5625 -3.625,0 -8.25,-1.5625 -11.125,-4.125 l -2.5625,5.125 c 3.3125,3 8.5,4.625 13.375,4.625 6.6875,0 12.75,-3.0625 12.75,-9.875 0.0625,-12.0625 -17.625,-8.75 -17.625,-14.875 0,-2.375 2.0625,-3.3125 4.875,-3.3125 2.9375,0 6.625,1.125 9.5625,2.9375 z m -42.29297,-8.625 c -5.1875,0 -9.1875,2.125 -11.625,6 l 0,-18.87503 -7.1875,0 0,46.37503 7.1875,0 0,-5.75 c 2.4375,3.875 6.4375,6 11.75,6 9.5,0 15.75,-6.8125 15.75,-16.75 0,-10.125 -6.4375,-17 -15.875,-17 z m -1.5,27.625 c -5.9375,0 -10.125,-4.4375 -10.125,-10.875 0,-6.25 4.1875,-10.75 10.125,-10.75 5.9375,0 10.125,4.5625 10.125,10.75 0,6.375 -4.1875,10.875 -10.125,10.875 z m -40.680663,-27.625 c -9.875,0.062 -16.8125,6.875 -16.8125,16.9375 0,10 6.75,16.8125 17,16.8125 5.75,0 10.500003,-2.0625 13.750003,-5.625 l -3.8125,-4.0625 c -2.437503,2.5 -5.750003,3.875 -9.375003,3.875 -5.25,0 -9.1875,-3.1875 -10.3125,-8.3125 l 25.125003,0 c 0.875,-12 -3.875,-19.625 -15.562503,-19.625 z m -9.6875,14.375 c 0.75,-5.3125 4.5,-8.625 9.75,-8.625 5.4375,0 9,3.25 9.25,8.625 l -19,0 z M 10,993.61267 l 14.5,43.75003 7.625,0 10.5,-34.125 10.375,34.125 7.5625,0 14.625,-43.75003 -7.625,0 L 57,1029.1752 46.375,993.61267 l -7.25,0 -10.5625,35.56253 -10.625,-35.56253 -7.9375,0 z"
         inkscape:connector-curvature="0" />
    </g>
  </g>
</svg>
