<?xml version="1.0" encoding="UTF-8" standalone="no"?>
<svg
   xmlns:dc="http://purl.org/dc/elements/1.1/"
   xmlns:cc="http://creativecommons.org/ns#"
   xmlns:rdf="http://www.w3.org/1999/02/22-rdf-syntax-ns#"
   xmlns:svg="http://www.w3.org/2000/svg"
   xmlns="http://www.w3.org/2000/svg"
   xmlns:sodipodi="http://sodipodi.sourceforge.net/DTD/sodipodi-0.dtd"
   xmlns:inkscape="http://www.inkscape.org/namespaces/inkscape"
   version="1.1"
   id="svg6554"
   viewBox="0 0 310 70.000001"
   height="70"
   width="310"
   inkscape:version="0.91 r13725"
   sodipodi:docname="slogan_3_2.svg">
  <sodipodi:namedview
     pagecolor="#ffffff"
     bordercolor="#666666"
     borderopacity="1"
     objecttolerance="10"
     gridtolerance="10"
     guidetolerance="10"
     inkscape:pageopacity="0"
     inkscape:pageshadow="2"
     inkscape:window-width="1920"
     inkscape:window-height="1027"
     id="namedview4700"
     showgrid="true"
     inkscape:zoom="3.6365492"
     inkscape:cx="200.87428"
     inkscape:cy="-34.782748"
     inkscape:window-x="-8"
     inkscape:window-y="-8"
     inkscape:window-maximized="1"
     inkscape:current-layer="svg6554">
    <inkscape:grid
       type="xygrid"
       id="grid5242" />
  </sodipodi:namedview>
  <defs
     id="defs6556" />
  <metadata
     id="metadata6559">
    <rdf:RDF>
      <cc:Work
         rdf:about="">
        <dc:format>image/svg+xml</dc:format>
        <dc:type
           rdf:resource="http://purl.org/dc/dcmitype/StillImage" />
        <dc:title />
      </cc:Work>
    </rdf:RDF>
  </metadata>
  <g
     transform="translate(0,-982.36214)"
     id="layer1"
     style="fill:none;stroke:#000000;stroke-width:10;stroke-miterlimit:4;stroke-dasharray:none;stroke-opacity:1">
    <g
       id="text7104"
       style="font-style:normal;font-variant:normal;font-weight:normal;font-stretch:normal;font-size:62.5px;line-height:125%;font-family:Montserrat;-inkscape-font-specification:Montserrat;letter-spacing:0px;word-spacing:0px;fill:none;fill-opacity:1;stroke:#000000;stroke-width:10;stroke-linecap:butt;stroke-linejoin:miter;stroke-miterlimit:4;stroke-dasharray:none;stroke-opacity:1">
      <path
         d="m 297.785,1031.075 c -0.94327,0 -1.92369,1.1193 -1.9375,2.0625 -0.0143,0.974 0.96344,2.1875 1.9375,2.1875 0.97406,0 1.95177,-1.2135 1.9375,-2.1875 -0.0138,-0.9432 -0.99423,-2.0625 -1.9375,-2.0625 z m -45.86775,-33.6497 0,54.9368 m 3.1875,-31.3622 c 0.004,3.6858 2,10.8125 2,10.8125 2.4375,3.875 6.4375,6 11.75,6 9.5,0 15.75,-6.8125 15.75,-16.75 0,-10.125 -6.4375,-17 -15.875,-17 -5.1875,0 -9.1875,2.125 -11.625,6 0,0 -2.00377,7.2517 -2,10.9375 m -52.0875,-0.063 c 0,10 7.0625,16.875 17.375,16.875 10.25,0 17.3125,-6.875 17.3125,-16.875 0,-10.0625 -7.0625,-16.875 -17.3125,-16.875 -10.3125,0 -17.375,6.8125 -17.375,16.875 m -11.76039,-12.3609 -22.0625,0 m 8.23611,-12.13869 0,11.81229 0,19.9375 c 0,6.8125 4.3125,9.6875 9.3125,9.6875 2.8125,0 5.5625,-0.875 8.1875,-2.4375 m -54.59256,-7.4734 c 8.65741,-7.5995 13.79056,-16.4163 22.78731,-19.265 m -17.91925,9.022 c 9.89311,12.7813 17.92395,19.4366 17.91667,24.6512 m -23.92362,-56.66492 0,56.68292 m -38.98393,-9.8834 c 3.3125,3 10.15278,5.3056 15.02778,5.3056 6.6875,0 12.85262,-3.5359 12.75,-8.6754 -0.19125,-9.5784 -23.79157,-5.6451 -24.38843,-15.2068 -0.32377,-5.1866 5.7257,-9.8299 12.1007,-9.8299 4.1875,0 10.625,1.25 13.625,3.375 m -69.08064,16.2119 31.125,0 c 0.875,-12 -3.875,-19.625 -15.5625,-19.625 -9.875,0.062 -16.8125,6.875 -16.8125,16.9375 0,10 6.75,16.8125 17,16.8125 5.75,0 10.5,-2.0625 13.75,-5.625 M 14.7,994.70152 l 0,43.16048 11.75,0 c 13.25,0 18.8125,-11.7499 18.8125,-24.3749 0,-12.6875 -5.5,-23.17435 -18.625,-23.17435 l -11.9375,0 0,4.38877"
         style="fill:none;stroke:#000000;stroke-width:9;stroke-linejoin:bevel;stroke-miterlimit:4;stroke-dasharray:none;stroke-opacity:1"
         id="path7123"
         inkscape:connector-curvature="0"
         sodipodi:nodetypes="aaaaaccccssscccssscccccssccccccccsaasccccsscccssscc" />
    </g>
  </g>
</svg>
