<?xml version="1.0" encoding="UTF-8" standalone="no"?>
<!-- Created with Inkscape (http://www.inkscape.org/) -->

<svg
   xmlns:dc="http://purl.org/dc/elements/1.1/"
   xmlns:cc="http://creativecommons.org/ns#"
   xmlns:rdf="http://www.w3.org/1999/02/22-rdf-syntax-ns#"
   xmlns:svg="http://www.w3.org/2000/svg"
   xmlns="http://www.w3.org/2000/svg"
   xmlns:sodipodi="http://sodipodi.sourceforge.net/DTD/sodipodi-0.dtd"
   xmlns:inkscape="http://www.inkscape.org/namespaces/inkscape"
   width="310"
   height="70"
   viewBox="0 0 310 70.000001"
   id="svg5982"
   version="1.1"
   inkscape:version="0.91 r13725"
   sodipodi:docname="slogan_2_2.svg">
  <defs
     id="defs5984" />
  <sodipodi:namedview
     id="base"
     pagecolor="#ffffff"
     bordercolor="#666666"
     borderopacity="1.0"
     inkscape:pageopacity="0.0"
     inkscape:pageshadow="2"
     inkscape:zoom="2.8"
     inkscape:cx="36.741277"
     inkscape:cy="-11.657967"
     inkscape:document-units="px"
     inkscape:current-layer="layer1"
     showgrid="true"
     units="px"
     inkscape:window-width="1920"
     inkscape:window-height="1027"
     inkscape:window-x="-8"
     inkscape:window-y="-8"
     inkscape:window-maximized="1">
    <inkscape:grid
       type="xygrid"
       id="grid6530" />
  </sodipodi:namedview>
  <metadata
     id="metadata5987">
    <rdf:RDF>
      <cc:Work
         rdf:about="">
        <dc:format>image/svg+xml</dc:format>
        <dc:type
           rdf:resource="http://purl.org/dc/dcmitype/StillImage" />
        <dc:title />
      </cc:Work>
    </rdf:RDF>
  </metadata>
  <g
     inkscape:label="Layer 1"
     inkscape:groupmode="layer"
     id="layer1"
     transform="translate(0,-982.36218)">
    <g
       style="font-style:normal;font-variant:normal;font-weight:normal;font-stretch:normal;font-size:62.5px;line-height:125%;font-family:Montserrat;-inkscape-font-specification:Montserrat;letter-spacing:0px;word-spacing:0px;fill:none;fill-opacity:1;stroke:#000000;stroke-width:9;stroke-linecap:butt;stroke-linejoin:bevel;stroke-miterlimit:4;stroke-dasharray:none;stroke-opacity:1"
       id="text6532"
       transform="translate(0,-0.19982)">
      <path
         id="path6551"
         d="m 293.61507,1038.225 c 0.97402,0 1.95162,-1.2136 1.93735,-2.1875 -0.0138,-0.9431 -0.99411,-2.0625 -1.93735,-2.0625 -0.94326,0 -1.92368,1.1193 -1.9375,2.0625 -0.0143,0.974 0.96344,2.1875 1.9375,2.1875 m -42.91857,-14.137 29.125,0 c 0.875,-12 -3.875,-19.625 -15.5625,-19.625 -9.875,0.062 -16.8125,6.875 -16.8125,16.9375 0,10 6.75,16.8125 17,16.8125 5.75,0 10.5,-2.0625 13.75,-5.625 m -64.24808,-23.0181 24.6966,-4e-4 m -15.78543,-11.9325 0,11.0128 0,19.9375 c 0,6.8125 4.3125,9.6875 9.3125,9.6875 2.8125,0 5.5625,-0.875 8.1875,-2.4375 M 204.209,994.22475 c 1.06107,0 2.18044,-1.25145 2.1875,-2.3125 0.007,-1.07628 -1.1112,-2.375 -2.1875,-2.375 -1.0763,0 -2.19466,1.29872 -2.1875,2.375 0.007,1.06105 1.12643,2.3125 2.1875,2.3125 m 0.054,6.19125 0,42.25 m -13.2094,-34.8121 c -3,-2.125 -8.2001,-3.7538 -12.3876,-3.7538 -6.375,0 -12.56505,2.4306 -12.18988,9.9018 0.37517,7.4712 24.43988,3.0733 24.37738,15.1358 0,6.8125 -6.0625,9.0745 -12.75,9.0745 -4.875,0 -10.0625,-1.625 -13.375,-4.625 m -41.68061,-11.8117 c 0.0486,3.7256 4,10.4375 4,10.4375 2.4375,3.875 6.4375,6 11.75,6 9.5,0 15.75,-6.8125 15.75,-16.75 0,-10.125 -6.4375,-17 -15.875,-17 -5.1875,0 -9.1875,2.125 -11.625,6 0,0 -4.05219,7.3132 -4,11.3125 m -1.1875,-36.78783 -0.12627,57.69133 m -42.704621,-18.591 29.125001,0 c 0.875,-12 -3.875,-19.625 -15.562501,-19.625 -9.875,0.062 -16.8125,6.875 -16.8125,16.9375 0,10 6.75,16.8125 17,16.8125 5.750002,0 10.500001,-2.0625 13.750001,-5.625 m -97.02925,-46.075 14.5,51.75 5.625,0 8.669643,-35.0253 1.795536,0 m 0,0 1.876339,0 8.533482,35.0253 5.5625,0 14.625,-51.75"
         inkscape:connector-curvature="0"
         style="stroke-width:9;stroke-linejoin:bevel;stroke-miterlimit:4;stroke-dasharray:none"
         sodipodi:nodetypes="caaaccccsscccccssccaaaccccszcscccssscccccccssccccccccccc" />
    </g>
  </g>
</svg>
