<?xml version="1.0" encoding="UTF-8" standalone="no"?>
<!-- Created with Inkscape (http://www.inkscape.org/) -->

<svg
   xmlns:dc="http://purl.org/dc/elements/1.1/"
   xmlns:cc="http://creativecommons.org/ns#"
   xmlns:rdf="http://www.w3.org/1999/02/22-rdf-syntax-ns#"
   xmlns:svg="http://www.w3.org/2000/svg"
   xmlns="http://www.w3.org/2000/svg"
   xmlns:sodipodi="http://sodipodi.sourceforge.net/DTD/sodipodi-0.dtd"
   xmlns:inkscape="http://www.inkscape.org/namespaces/inkscape"
   width="500"
   height="500"
   viewBox="0 0 499.99998 499.99998"
   id="svg4165"
   version="1.1"
   inkscape:version="0.91 r13725"
   sodipodi:docname="logo.svg">
  <defs
     id="defs4167" />
  <sodipodi:namedview
     id="base"
     pagecolor="#ffffff"
     bordercolor="#666666"
     borderopacity="1.0"
     inkscape:pageopacity="0.0"
     inkscape:pageshadow="2"
     inkscape:zoom="1.4"
     inkscape:cx="213.64051"
     inkscape:cy="205.97072"
     inkscape:document-units="px"
     inkscape:current-layer="layer1"
     showgrid="true"
     units="px"
     inkscape:window-width="1920"
     inkscape:window-height="1027"
     inkscape:window-x="-8"
     inkscape:window-y="-8"
     inkscape:window-maximized="1">
    <inkscape:grid
       type="xygrid"
       id="grid4724" />
  </sodipodi:namedview>
  <metadata
     id="metadata4170">
    <rdf:RDF>
      <cc:Work
         rdf:about="">
        <dc:format>image/svg+xml</dc:format>
        <dc:type
           rdf:resource="http://purl.org/dc/dcmitype/StillImage" />
        <dc:title />
      </cc:Work>
    </rdf:RDF>
  </metadata>
  <g
     inkscape:label="Layer 1"
     inkscape:groupmode="layer"
     id="layer1"
     transform="translate(0,-552.36209)">
    <path
       id="rect4726-50-7-2-7"
       style="fill:none;fill-opacity:1;stroke:#000000;stroke-width:1.99999976;stroke-linecap:butt;stroke-linejoin:miter;stroke-miterlimit:1;stroke-dasharray:none;stroke-opacity:1"
       d="m 180.7212,715.4227 138.71324,0 c 9.60589,0 17.33916,7.73126 17.33916,17.33468 l 0,138.67744 c 0,9.6034 -7.73327,17.33465 -17.33916,17.33465 l -138.71324,0 c -9.60588,0 -17.33916,-7.73125 -17.33916,-17.33465 l 0,-138.67744 c 0,-9.60342 7.73328,-17.33468 17.33916,-17.33468 z M 19.772067,732.77816 130.40055,715.29043 c 7.5884,-1.19952 13.86762,7.73942 13.86762,17.35295 l 0,138.82331 c 0,9.61353 -6.2691,18.48652 -13.86762,17.35293 L 19.45971,872.26876 C 11.861187,871.13515 5.5634409,864.5293 5.5920932,854.91583 L 5.9044519,750.13109 C 5.9331389,740.5176 12.183692,733.9777 19.772067,732.77816 Z M 480.17305,733.3075 369.54458,715.81979 c -7.58841,-1.19955 -13.86761,7.73939 -13.86761,17.3529 l 0,138.82331 c 0,9.61353 6.26908,18.48653 13.86761,17.35293 l 110.94083,-16.55087 c 7.59852,-1.13361 13.89626,-7.73944 13.86762,-17.3529 l -0.31236,-104.78473 c -0.0287,-9.61349 -6.27925,-16.1534 -13.86762,-17.35293 z M 321.01604,572.02892 338.50827,682.62887 c 1.19984,7.58644 -7.7414,13.86402 -17.3574,13.86402 l -138.85914,0 c -9.61599,0 -18.49128,-6.26746 -17.35741,-13.86402 l 16.55516,-110.91222 c 1.13389,-7.59656 7.74144,-13.89269 17.35738,-13.86405 l 104.81177,0.31231 c 9.61597,0.0287 16.15757,6.2776 17.35741,13.86401 z m -2.49893,460.66648 17.49224,-110.59993 c 1.19984,-7.58645 -7.7414,-13.86401 -17.35741,-13.86401 l -138.8591,0 c -9.61601,0 -18.4913,6.26744 -17.35741,13.86401 l 16.55513,110.91213 c 1.1339,7.5965 7.74145,13.8926 17.3574,13.8639 l 104.81175,-0.3122 c 9.61597,-0.029 16.15757,-6.2776 17.3574,-13.8639 z m 50.98157,-125.08082 111.00274,-17.48772 c 7.59325,-1.19626 15.09611,6.28433 13.87536,13.87177 l -17.8046,110.66177 c -1.22076,7.5874 -6.28596,12.6512 -13.87535,13.8718 l -110.69037,17.7998 c -7.58939,1.2205 -15.07193,-6.2804 -13.87535,-13.8718 l 17.49224,-110.97385 c 1.19656,-7.59127 6.2821,-12.6755 13.87533,-13.87177 z m -238.90656,0 L 19.589413,890.12682 C 11.99621,888.93051 4.4933359,896.41111 5.7141015,903.99854 L 23.518695,1014.6604 c 1.220766,7.5873 6.285957,12.6512 13.875348,13.8716 l 110.690367,17.8 c 7.58939,1.2205 15.07193,-6.2806 13.87536,-13.8718 L 144.46752,921.48627 c -1.19656,-7.59128 -6.2821,-12.6755 -13.87534,-13.87178 z M 130.50122,697.36354 19.498508,714.85127 C 11.905268,716.04745 4.4023939,708.56685 5.6231594,700.97941 L 23.427753,590.31764 c 1.220765,-7.58743 6.285957,-12.65132 13.875348,-13.87177 l 110.690359,-17.8 c 7.58938,-1.22045 15.07192,6.2805 13.87534,13.87178 L 144.37656,683.4917 c -1.19656,7.59129 -6.28209,12.67549 -13.87534,13.87176 z m 238.49773,-0.091 111.0027,17.4877 c 7.59323,1.19629 15.0961,-6.28432 13.87533,-13.87175 L 476.0724,590.22674 c -1.22077,-7.58746 -6.28595,-12.65133 -13.87536,-13.87178 L 351.50672,558.55495 c -7.58939,-1.22045 -15.07193,6.28049 -13.87535,13.87177 l 17.49224,110.97405 c 1.19656,7.59126 6.2821,12.6755 13.87534,13.87177 z" />
  </g>
</svg>
